<svg width="52" height="52" viewBox="0 0 52 52" fill="none" xmlns="http://www.w3.org/2000/svg">
<path d="M47.5464 31.3558L47.5932 31.4895L47.6432 31.7081L47.6625 31.9217V46.0417C47.6625 46.8644 47.0511 47.5443 46.2581 47.6519L46.0375 47.6667H5.95831C5.13563 47.6667 4.45575 47.0552 4.34815 46.2622L4.33331 46.0417V31.9596L4.3373 31.845L4.36085 31.6598C4.38282 31.5432 4.41653 31.4323 4.46102 31.3272L10.4395 18.2867C10.6712 17.7814 11.142 17.4348 11.6816 17.356L11.9166 17.339L17.4196 17.3373L15.7102 20.3061L15.5628 20.5873L12.9588 20.5877L8.48898 30.3329H43.485L39.0927 20.9166L40.9612 17.6725C41.1055 17.7827 41.2319 17.9174 41.3337 18.0724L41.4477 18.277L47.5464 31.3558ZM28.9579 4.45392L29.1559 4.55135L40.3968 11.0581C41.1079 11.4697 41.3905 12.3396 41.0878 13.0808L40.9905 13.2793L34.9093 23.8355L37.375 23.8368C38.2724 23.8368 39 24.5644 39 25.4618C39 26.2845 38.3885 26.9644 37.5955 27.0721L37.375 27.0868L33.0373 27.0855L33.0354 27.092H24.1997L24.193 27.0855L14.625 27.0868C13.7275 27.0868 13 26.3592 13 25.4618C13 24.6391 13.6113 23.9592 14.4045 23.8518L14.625 23.8368L18.5748 23.8355L18.1815 23.6087C17.4704 23.197 17.1878 22.3271 17.4906 21.5859L17.5878 21.3874L26.9405 5.14662C27.3509 4.43372 28.2186 4.15041 28.9579 4.45392ZM28.9378 8.1798L21.2069 21.6043L25.0596 23.8355H31.1631L37.3706 13.0611L28.9378 8.1798Z" fill="#F2F4FC"/>
</svg>
